HIERARCHY
ROOT Hips
{
	OFFSET -0.001795 -0.223333 0.028219
	CHANNELS 6 Xposition Yposition Zposition Zrotation Yrotation Xrotation 
	JOINT LeftUpLeg
	{
		OFFSET 0.069520 -0.091406 -0.006815
		CHANNELS 3 Zrotation Yrotation Xrotation
		JOINT LeftLeg
		{
			OFFSET 0.034277 -0.375199 -0.004496
			CHANNELS 3 Zrotation Yrotation Xrotation
			JOINT LeftFoot
			{
				OFFSET -0.013596 -0.397961 -0.043693
				CHANNELS 3 Zrotation Yrotation Xrotation
				JOINT LeftToe
				{
					OFFSET 0.026358 -0.055791 0.119288
					CHANNELS 3 Zrotation Yrotation Xrotation
					End Site
					{
						OFFSET 0.000000 0.000000 0.000000
					}
				}
			}
		}
	}
	JOINT RightUpLeg
	{
		OFFSET -0.067670 -0.090522 -0.004320
		CHANNELS 3 Zrotation Yrotation Xrotation
		JOINT RightLeg
		{
			OFFSET -0.038290 -0.382569 -0.008850
			CHANNELS 3 Zrotation Yrotation Xrotation
			JOINT RightFoot
			{
				OFFSET 0.015774 -0.398415 -0.042312
				CHANNELS 3 Zrotation Yrotation Xrotation
				JOINT RightToe
				{
					OFFSET -0.025372 -0.048144 0.123348
					CHANNELS 3 Zrotation Yrotation Xrotation
					End Site
					{
						OFFSET 0.000000 0.000000 0.000000
					}
				}
			}
		}
	}
	JOINT Spine
	{
		OFFSET -0.002533 0.108963 -0.026696
		CHANNELS 3 Zrotation Yrotation Xrotation
		JOINT Spine1
		{
			OFFSET 0.005487 0.135180 0.001092
			CHANNELS 3 Zrotation Yrotation Xrotation
			JOINT Spine2
			{
				OFFSET 0.001457 0.052922 0.025425
				CHANNELS 3 Zrotation Yrotation Xrotation
				JOINT Neck
				{
					OFFSET -0.002778 0.213870 -0.042857
					CHANNELS 3 Zrotation Yrotation Xrotation
					JOINT Head
					{
						OFFSET 0.005152 0.064970 0.051349
						CHANNELS 3 Zrotation Yrotation Xrotation
						End Site
						{
							OFFSET 0.000000 0.000000 0.000000
						}
					}
				}
				JOINT LeftShoulder
				{
					OFFSET 0.078845 0.121749 -0.034090
					CHANNELS 3 Zrotation Yrotation Xrotation
					JOINT LeftArm
					{
						OFFSET 0.090977 0.030469 -0.008868
						CHANNELS 3 Zrotation Yrotation Xrotation
						JOINT LeftForeArm
						{
							OFFSET 0.259612 -0.012772 -0.027456
							CHANNELS 3 Zrotation Yrotation Xrotation
							JOINT LeftHand
							{
								OFFSET 0.249234 0.008986 -0.001171
								CHANNELS 3 Zrotation Yrotation Xrotation
								End Site
								{
									OFFSET 0.000000 0.000000 0.000000
								}
							}
						}
					}
				}
				JOINT RightShoulder
				{
					OFFSET -0.081759 0.118833 -0.038615
					CHANNELS 3 Zrotation Yrotation Xrotation
					JOINT RightArm
					{
						OFFSET -0.096012 0.032551 -0.009143
						CHANNELS 3 Zrotation Yrotation Xrotation
						JOINT RightForeArm
						{
							OFFSET -0.253742 -0.013329 -0.021401
							CHANNELS 3 Zrotation Yrotation Xrotation
							JOINT RightHand
							{
								OFFSET -0.255298 0.007772 -0.005559
								CHANNELS 3 Zrotation Yrotation Xrotation
								End Site
								{
									OFFSET 0.000000 0.000000 0.000000
								}
							}
						}
					}
				}
			}
		}
	}
}
MOTION
Frames: 13
Frame Time: 0.050000
0.268133 0.760856 2.108244 -4.683494 -15.520709 -1.533428 10.792776 4.904397 -54.614786 -5.865222 6.150427 63.581121 6.188136 10.304352 -11.667324 0.000000 0.000000 0.000000 -5.609120 3.322585 -32.835609 14.727723 -2.329483 86.320799 -6.185822 -15.247216 -4.398979 0.000000 0.000000 0.000000 1.573453 -0.441754 26.832566 -3.073142 1.159722 -7.760202 1.839862 14.473808 7.906863 7.885456 -1.109069 -28.000476 0.000000 0.000000 0.000000 -1.745003 -9.921090 3.085252 -27.659085 -48.481830 6.153718 102.373696 -45.812233 -54.821527 0.000000 0.000000 0.000000 10.236011 10.479546 4.775580 35.944698 29.843327 4.533385 -137.392714 59.128232 -99.722229 0.000000 0.000000 0.000000 
0.267923 0.706052 2.213511 -3.474772 -13.182547 -4.068887 8.969571 3.740987 -60.232226 -4.993476 4.113509 61.320656 2.840753 4.674017 -3.424726 0.000000 0.000000 0.000000 -11.433254 1.705496 -33.056020 15.624928 -5.540408 93.428341 -5.091734 -9.692362 -14.219678 0.000000 0.000000 0.000000 -0.117280 -0.107185 29.894231 -0.716140 0.277005 -3.344890 0.019486 14.128911 1.720584 9.307096 -1.704440 -26.597868 0.000000 0.000000 0.000000 -9.460784 -11.060469 2.622273 -30.024491 -35.830218 4.876891 113.960672 -55.798878 -78.554585 0.000000 0.000000 0.000000 12.458177 8.810661 4.332928 39.139682 19.534183 2.089732 -154.893296 67.306337 -131.950567 0.000000 0.000000 0.000000 
0.266410 0.648025 2.306349 -1.963472 -15.188364 -6.751697 6.160890 3.044580 -62.539905 -3.425965 4.704566 77.481158 5.687523 6.634970 -17.846104 0.000000 0.000000 0.000000 -11.577972 2.195719 -36.623357 14.517947 -3.696547 104.892425 -6.520811 -14.372021 -26.942970 0.000000 0.000000 0.000000 -0.473687 0.314413 32.673249 -3.435393 1.524503 -2.930988 2.177303 11.131450 3.730989 6.917746 -0.800080 -28.496859 0.000000 0.000000 0.000000 -14.925643 -8.589252 1.839420 -32.398932 -26.340811 2.967907 125.876088 -59.943651 -94.480346 0.000000 0.000000 0.000000 14.540024 9.188305 3.895665 40.636255 15.530663 0.829952 -157.862145 73.277578 -142.912973 0.000000 0.000000 0.000000 
0.261742 0.604662 2.373164 -2.583404 -12.331584 -8.158298 4.997467 1.415267 -66.207498 -4.210787 5.510257 92.622346 7.644060 9.585577 -26.254461 0.000000 0.000000 0.000000 -10.690683 2.338544 -39.805315 13.396631 -6.034290 113.830245 -6.726058 -16.414964 -22.575763 0.000000 0.000000 0.000000 2.192075 -0.618172 38.076301 -2.859219 1.258789 -4.177203 0.298025 11.596078 5.926632 9.245455 -1.708684 -28.628238 0.000000 0.000000 0.000000 -20.019881 -9.321791 1.263965 -31.256942 -20.372667 1.556671 129.124673 -69.800995 -109.961424 0.000000 0.000000 0.000000 19.067032 5.706073 2.885043 38.373358 10.958865 -1.137566 -166.818912 75.134052 -154.217040 0.000000 0.000000 0.000000 
0.255035 0.577918 2.420869 -1.931481 -12.317931 -8.182922 5.470038 1.804469 -67.004229 -7.248066 10.591529 100.196478 8.943873 13.901352 -29.225261 0.000000 0.000000 0.000000 -10.029817 3.101195 -44.889302 13.651697 -8.794026 119.576890 -7.509716 -20.257559 -20.110987 0.000000 0.000000 0.000000 2.241667 -0.502400 42.601717 -3.131006 1.418175 -3.442511 -0.118941 10.897117 4.361281 9.223983 -1.553798 -29.532632 0.000000 0.000000 0.000000 -22.434219 -9.990091 1.386232 -33.571422 -13.645596 0.144281 113.356851 -74.291004 -96.681114 0.000000 0.000000 0.000000 17.773998 6.968788 3.378730 39.142714 7.285125 -2.095269 -165.173124 79.957265 -154.518119 0.000000 0.000000 0.000000 
0.248938 0.575244 2.458505 -1.706788 -10.214594 -5.808793 5.616474 1.084379 -68.427967 -7.939150 11.446190 104.666691 8.758454 13.625513 -28.037616 0.000000 0.000000 0.000000 -10.673297 2.860855 -48.717571 14.673778 -13.661203 119.124283 -8.523214 -24.197192 -20.855005 0.000000 0.000000 0.000000 3.450957 -1.333112 43.302113 -2.966561 1.341641 -4.084604 -0.594350 10.310504 4.488900 8.813542 -1.270533 -29.751806 0.000000 0.000000 0.000000 -24.273702 -9.009699 0.556120 -36.374173 -7.023722 -1.639502 77.413212 -78.332900 -64.910560 0.000000 0.000000 0.000000 15.883604 5.153356 2.465505 41.608541 3.047985 -3.485211 -166.869929 85.345049 -158.088983 0.000000 0.000000 0.000000 
0.245000 0.581711 2.490621 -1.487836 -8.242351 -3.802441 5.768631 0.338663 -68.941078 -9.000005 12.544493 105.776298 8.986562 15.454766 -25.808922 0.000000 0.000000 0.000000 -10.825393 2.639722 -51.925491 15.164510 -16.120253 117.103551 -10.110349 -28.494474 -16.612343 0.000000 0.000000 0.000000 4.254024 -2.029628 43.404407 -2.454310 1.114890 -4.820086 -1.354221 9.942496 3.316915 8.609122 -1.190576 -28.948736 0.000000 0.000000 0.000000 -25.945528 -6.342753 -1.415219 -38.597346 0.156697 -3.763568 22.984102 -77.725933 -17.404140 0.000000 0.000000 0.000000 18.007588 2.264153 1.137662 41.344645 -3.091710 -5.355065 60.653050 87.469261 65.392115 0.000000 0.000000 0.000000 
0.242809 0.594049 2.519796 -1.099758 -6.298465 -1.934682 3.928381 -1.771158 -67.974298 -8.407669 10.900824 105.525237 9.490735 17.828113 -24.975424 0.000000 0.000000 0.000000 -10.159214 2.551824 -53.232549 13.788634 -14.331532 115.263506 -10.928636 -29.543350 -12.907412 0.000000 0.000000 0.000000 4.687989 -2.503576 41.498581 -2.345105 1.085791 -4.136632 -1.663706 9.553846 1.472778 9.196492 -1.644017 -27.163485 0.000000 0.000000 0.000000 -26.484733 -4.569510 -2.730247 -40.366146 5.985228 -5.635095 1.184111 -71.482748 0.167766 0.000000 0.000000 0.000000 20.090661 0.823159 0.424198 41.345295 -8.248373 -6.809612 28.592667 84.099282 32.198440 0.000000 0.000000 0.000000 
0.241812 0.609595 2.544771 -1.508254 -5.057631 0.218138 3.038066 -2.810382 -66.265057 -7.389668 8.780305 105.418954 9.232142 16.696757 -25.887075 0.000000 0.000000 0.000000 -8.920803 2.829804 -53.558344 12.614169 -12.185913 112.205988 -11.952811 -31.956160 -11.572170 0.000000 0.000000 0.000000 5.742079 -3.012929 39.102006 -2.605174 1.181179 -6.207128 -2.096974 10.132015 1.557186 9.840166 -2.022335 -25.981289 0.000000 0.000000 0.000000 -27.180177 -2.535471 -4.405394 -40.204543 10.734043 -6.988556 -12.101620 -67.656022 8.979576 0.000000 0.000000 0.000000 22.540642 -2.555477 -1.278773 40.307884 -12.896759 -8.024620 41.015489 79.415044 40.499253 0.000000 0.000000 0.000000 
0.241193 0.629784 2.564536 -1.171370 -5.701241 0.633664 1.867905 -3.134472 -62.493886 -5.836823 6.592100 102.599019 10.186410 20.595253 -21.404033 0.000000 0.000000 0.000000 -7.310612 3.637393 -52.338168 11.765698 -9.095352 108.290336 -11.521397 -31.030529 -12.414049 0.000000 0.000000 0.000000 5.294866 -2.588389 36.115463 -2.593098 1.171045 -5.336627 -2.092620 12.037250 1.524308 10.060957 -1.563074 -28.245321 0.000000 0.000000 0.000000 -27.005095 -3.598904 -4.306385 -41.021500 11.846489 -7.369546 -7.715499 -67.823704 5.693656 0.000000 0.000000 0.000000 24.585869 -3.695004 -1.556025 39.890832 -12.615484 -8.004438 19.301434 79.273934 22.344386 0.000000 0.000000 0.000000 
0.240733 0.660879 2.580133 -1.349974 -6.647914 0.338626 1.374454 -2.866002 -55.783065 -3.118367 3.171940 96.286099 10.040287 19.948312 -25.657446 0.000000 0.000000 0.000000 -5.499220 4.214130 -48.424607 11.617396 -6.780494 102.157796 -11.553694 -31.887804 -14.047564 0.000000 0.000000 0.000000 5.484959 -2.374434 33.411618 -3.151147 1.365165 -7.162297 -1.432097 12.029956 5.185513 9.036619 -0.734861 -31.678219 0.000000 0.000000 0.000000 -25.855543 -3.095646 -4.031950 -41.475643 7.161503 -6.263300 11.103322 -74.497573 -7.809963 0.000000 0.000000 0.000000 21.745955 -2.277836 -0.690517 40.699409 -7.011945 -6.767736 -9.786001 81.406140 -1.268823 0.000000 0.000000 0.000000 
0.240558 0.707089 2.595081 -0.879806 -7.689528 -0.602078 1.227021 -2.444179 -47.686941 -1.210901 1.581719 86.619557 9.621597 18.631912 -24.791085 0.000000 0.000000 0.000000 -4.355152 4.285800 -43.899576 11.926340 -5.091850 93.217436 -11.739645 -31.543022 -11.714879 0.000000 0.000000 0.000000 5.821715 -2.155362 30.027279 -3.095996 1.316347 -7.783931 -2.187473 11.615356 6.954560 9.909755 -1.304165 -31.659688 0.000000 0.000000 0.000000 -21.294877 -3.940149 -2.287622 -39.501282 0.811516 -4.323252 74.365572 -80.532558 -64.540080 0.000000 0.000000 0.000000 17.830588 -1.191247 -0.274335 38.856848 -1.427609 -4.916229 -107.633078 82.022446 -90.988355 0.000000 0.000000 0.000000 
0.241122 0.781730 2.611285 -1.061605 -8.708282 -0.400570 1.897566 -1.787876 -37.566376 -1.509351 2.158452 69.847699 8.893231 17.436362 -16.786825 0.000000 0.000000 0.000000 -4.102924 3.468088 -36.019201 10.844786 -2.165072 78.092919 -9.233791 -23.454530 -11.611653 0.000000 0.000000 0.000000 6.105216 -1.684349 21.577238 -3.464800 1.500535 -5.375685 -1.862437 11.242046 5.823011 8.304229 -1.304446 -27.263452 0.000000 0.000000 0.000000 -13.968355 -2.836565 -1.299182 -33.775850 -6.091764 -2.046950 116.994523 -72.317554 -98.860113 0.000000 0.000000 0.000000 12.749760 -1.479847 -0.653197 32.398322 3.046036 -2.939920 -132.117743 71.649242 -106.853932 0.000000 0.000000 0.000000 
